<svg width="20" height="20" viewBox="0 0 20 20" fill="none" xmlns="http://www.w3.org/2000/svg">
<path d="M8.50817 5.17495L9.1665 4.50829V8.33329C9.1665 8.5543 9.2543 8.76626 9.41058 8.92254C9.56686 9.07882 9.77882 9.16662 9.99983 9.16662C10.2208 9.16662 10.4328 9.07882 10.5891 8.92254C10.7454 8.76626 10.8332 8.5543 10.8332 8.33329V4.50829L11.4915 5.17495C11.569 5.25306 11.6611 5.31506 11.7627 5.35736C11.8642 5.39967 11.9732 5.42145 12.0832 5.42145C12.1932 5.42145 12.3021 5.39967 12.4036 5.35736C12.5052 5.31506 12.5974 5.25306 12.6748 5.17495C12.7529 5.09748 12.8149 5.00532 12.8572 4.90377C12.8995 4.80222 12.9213 4.6933 12.9213 4.58329C12.9213 4.47328 12.8995 4.36436 12.8572 4.26281C12.8149 4.16126 12.7529 4.06909 12.6748 3.99162L10.5915 1.90829C10.5122 1.83242 10.4188 1.77295 10.3165 1.73329C10.1136 1.64994 9.88605 1.64994 9.68317 1.73329C9.58087 1.77295 9.48742 1.83242 9.40817 1.90829L7.32483 3.99162C7.16791 4.14854 7.07976 4.36137 7.07976 4.58329C7.07976 4.80521 7.16791 5.01803 7.32483 5.17495C7.48175 5.33187 7.69458 5.42003 7.9165 5.42003C8.13842 5.42003 8.35125 5.33187 8.50817 5.17495ZM14.9998 6.29995C14.921 6.22116 14.8275 6.15866 14.7245 6.11602C14.6216 6.07337 14.5113 6.05143 14.3998 6.05143C14.2884 6.05143 14.1781 6.07337 14.0751 6.11602C13.9722 6.15866 13.8786 6.22116 13.7998 6.29995C13.721 6.37875 13.6585 6.47229 13.6159 6.57524C13.5733 6.67818 13.5513 6.78852 13.5513 6.89995C13.5513 7.01138 13.5733 7.12172 13.6159 7.22467C13.6585 7.32762 13.721 7.42116 13.7998 7.49995C14.5517 8.25158 15.0639 9.20931 15.2714 10.252C15.479 11.2947 15.3726 12.3755 14.9659 13.3578C14.5591 14.3401 13.8702 15.1797 12.9862 15.7704C12.1023 16.3611 11.063 16.6763 9.99983 16.6763C8.93667 16.6763 7.89739 16.3611 7.01344 15.7704C6.12948 15.1797 5.44055 14.3401 5.03379 13.3578C4.62703 12.3755 4.5207 11.2947 4.72826 10.252C4.93581 9.20931 5.44793 8.25158 6.19983 7.49995C6.27863 7.42116 6.34113 7.32762 6.38377 7.22467C6.42641 7.12172 6.44836 7.01138 6.44836 6.89995C6.44836 6.78852 6.42641 6.67818 6.38377 6.57524C6.34113 6.47229 6.27863 6.37875 6.19983 6.29995C6.12104 6.22116 6.0275 6.15866 5.92455 6.11602C5.8216 6.07337 5.71126 6.05143 5.59983 6.05143C5.4884 6.05143 5.37806 6.07337 5.27511 6.11602C5.17217 6.15866 5.07863 6.22116 4.99983 6.29995C4.01809 7.28759 3.35084 8.54384 3.08223 9.91025C2.81362 11.2767 2.95569 12.692 3.49053 13.9778C4.02536 15.2635 4.929 16.3621 6.08745 17.1349C7.2459 17.9077 8.60727 18.3201 9.99983 18.3201C11.3924 18.3201 12.7538 17.9077 13.9122 17.1349C15.0707 16.3621 15.9743 15.2635 16.5091 13.9778C17.044 12.692 17.186 11.2767 16.9174 9.91025C16.6488 8.54384 15.9816 7.28759 14.9998 6.29995Z" fill="#F22617"/>
</svg>
